<?xml version="1.0" standalone="no"?>
<!DOCTYPE svg PUBLIC "-//W3C//DTD SVG 20010904//EN"
 "http://www.w3.org/TR/2001/REC-SVG-20010904/DTD/svg10.dtd">
<svg version="1.0" xmlns="http://www.w3.org/2000/svg"
 width="260.000000pt" height="260.000000pt" viewBox="0 0 260.000000 260.000000"
 preserveAspectRatio="xMidYMid meet">
<metadata>
Created by potrace 1.11, written by Peter Selinger 2001-2013
</metadata>
<g transform="translate(0.000000,260.000000) scale(0.100000,-0.100000)"
fill="#000000" stroke="none">
<path d="M366 2579 c-128 -37 -249 -136 -309 -255 -58 -115 -57 -93 -57 -1029
0 -808 2 -864 19 -921 58 -192 213 -334 397 -364 78 -13 1711 -12 1779 1 136
26 277 131 342 254 64 123 63 93 63 1030 0 893 -1 911 -45 1005 -33 70 -46 89
-103 148 -63 65 -173 126 -257 142 -29 5 -406 9 -905 9 -820 -1 -858 -1 -924
-20z"/>
</g>
</svg>
